<svg xmlns="http://www.w3.org/2000/svg" viewBox="0 0 512 512" role="img" aria-labelledby="title desc">
  <title id="title">AR Reading Tracker</title>
  <desc id="desc">A warm app icon with an open book and reading stars.</desc>
  <rect width="512" height="512" rx="112" fill="#f6efe4"/>
  <circle cx="398" cy="124" r="46" fill="#b75a73" opacity=".92"/>
  <circle cx="112" cy="398" r="42" fill="#7aa174" opacity=".92"/>
  <path d="M128 151c0-22 18-40 40-40h72c28 0 54 11 72 31 18-20 44-31 72-31h24c22 0 40 18 40 40v206c0 22-18 40-40 40h-42c-50 0-97 17-134 48-12 10-28 10-40 0-37-31-84-48-134-48h-30c-22 0-40-18-40-40V151Z" fill="#ffffff"/>
  <path d="M312 168v230c-37-27-80-41-126-41h-18V151h72c29 0 56 15 72 17Z" fill="#f0d7c0"/>
  <path d="M336 168c16-2 43-17 72-17h24v206h-42c-46 0-89 14-126 41V168Z" fill="#cfe2dc"/>
  <path d="M152 151c0-9 7-16 16-16h72c23 0 45 9 61 25l11 11 11-11c16-16 38-25 61-25h24c9 0 16 7 16 16v206c0 9-7 16-16 16h-42c-48 0-95 14-134 40-39-26-86-40-134-40h-30c-9 0-16-7-16-16V151Z" fill="none" stroke="#26323f" stroke-width="24" stroke-linejoin="round"/>
  <path d="M312 171v238" fill="none" stroke="#26323f" stroke-width="18" stroke-linecap="round"/>
  <path d="M181 210h83M181 256h77M181 302h60M363 210h39M363 256h39M363 302h39" fill="none" stroke="#26323f" stroke-width="18" stroke-linecap="round"/>
  <path d="m104 134 12 25 27 4-20 19 5 27-24-13-24 13 5-27-20-19 27-4 12-25Z" fill="#e0a84f"/>
  <path d="m407 347 9 19 21 3-15 15 4 21-19-10-19 10 4-21-15-15 21-3 9-19Z" fill="#e0a84f"/>
</svg>
